<svg aria-roledescription="flowchart-v2" role="graphics-document document" viewBox="-8 -8 1075.72265625 426" style="max-width: 1075.72px; background-color: white;" xmlns:xlink="http://www.w3.org/1999/xlink" xmlns="http://www.w3.org/2000/svg" width="100%" id="my-svg"><style>#my-svg{font-size:13px;fill:#e2e8f0;}#my-svg .error-icon{fill:#1e293b;}#my-svg .error-text{fill:#e1d6c4;stroke:#e1d6c4;}#my-svg .edge-thickness-normal{stroke-width:2px;}#my-svg .edge-thickness-thick{stroke-width:3.5px;}#my-svg .edge-pattern-solid{stroke-dasharray:0;}#my-svg .edge-pattern-dashed{stroke-dasharray:3;}#my-svg .edge-pattern-dotted{stroke-dasharray:2;}#my-svg .marker{fill:#38bdf8;stroke:#38bdf8;}#my-svg .marker.cross{stroke:#38bdf8;}#my-svg svg{font-size:13px;}#my-svg .label{color:#e2e8f0;}#my-svg .cluster-label text{fill:#1e1b4b;}#my-svg .cluster-label span,#my-svg p{color:#1e1b4b;}#my-svg .label text,#my-svg span,#my-svg p{fill:#e2e8f0;color:#e2e8f0;}#my-svg .node rect,#my-svg .node circle,#my-svg .node ellipse,#my-svg .node polygon,#my-svg .node path{fill:#0f172a;stroke:#0063e5;stroke-width:1px;}#my-svg .flowchart-label text{text-anchor:middle;}#my-svg .node .katex path{fill:#000;stroke:#000;stroke-width:1px;}#my-svg .node .label{text-align:center;}#my-svg .node.clickable{cursor:pointer;}#my-svg .arrowheadPath{fill:#0b0b0b;}#my-svg .edgePath .path{stroke:#38bdf8;stroke-width:2.0px;}#my-svg .flowchart-link{stroke:#38bdf8;fill:none;}#my-svg .edgeLabel{background-color:#e8f0ff;text-align:center;}#my-svg .edgeLabel rect{opacity:0.5;background-color:#e8f0ff;fill:#e8f0ff;}#my-svg .labelBkg{background-color:rgba(232, 240, 255, 0.5);}#my-svg .cluster rect{fill:#f0f7ff;stroke:#bfdbfe;stroke-width:1px;}#my-svg .cluster text{fill:#1e1b4b;}#my-svg .cluster span,#my-svg p{color:#1e1b4b;}#my-svg div.mermaidTooltip{position:absolute;text-align:center;max-width:200px;padding:2px;font-size:12px;background:#1e293b;border:1px solid hsl(217.2413793103, 0%, 7.4509803922%);border-radius:2px;pointer-events:none;z-index:100;}#my-svg .flowchartTitleText{text-anchor:middle;font-size:18px;fill:#e2e8f0;}#my-svg :root{--mermaid-font-family:"trebuchet ms",verdana,arial,sans-serif;}</style><g><marker orient="auto" markerHeight="12" markerWidth="12" markerUnits="userSpaceOnUse" refY="5" refX="6" viewBox="0 0 10 10" class="marker flowchart" id="my-svg_flowchart-pointEnd"><path style="stroke-width: 1; stroke-dasharray: 1, 0;" class="arrowMarkerPath" d="M 0 0 L 10 5 L 0 10 z"/></marker><marker orient="auto" markerHeight="12" markerWidth="12" markerUnits="userSpaceOnUse" refY="5" refX="4.5" viewBox="0 0 10 10" class="marker flowchart" id="my-svg_flowchart-pointStart"><path style="stroke-width: 1; stroke-dasharray: 1, 0;" class="arrowMarkerPath" d="M 0 5 L 10 10 L 10 0 z"/></marker><marker orient="auto" markerHeight="11" markerWidth="11" markerUnits="userSpaceOnUse" refY="5" refX="11" viewBox="0 0 10 10" class="marker flowchart" id="my-svg_flowchart-circleEnd"><circle style="stroke-width: 1; stroke-dasharray: 1, 0;" class="arrowMarkerPath" r="5" cy="5" cx="5"/></marker><marker orient="auto" markerHeight="11" markerWidth="11" markerUnits="userSpaceOnUse" refY="5" refX="-1" viewBox="0 0 10 10" class="marker flowchart" id="my-svg_flowchart-circleStart"><circle style="stroke-width: 1; stroke-dasharray: 1, 0;" class="arrowMarkerPath" r="5" cy="5" cx="5"/></marker><marker orient="auto" markerHeight="11" markerWidth="11" markerUnits="userSpaceOnUse" refY="5.2" refX="12" viewBox="0 0 11 11" class="marker cross flowchart" id="my-svg_flowchart-crossEnd"><path style="stroke-width: 2; stroke-dasharray: 1, 0;" class="arrowMarkerPath" d="M 1,1 l 9,9 M 10,1 l -9,9"/></marker><marker orient="auto" markerHeight="11" markerWidth="11" markerUnits="userSpaceOnUse" refY="5.2" refX="-1" viewBox="0 0 11 11" class="marker cross flowchart" id="my-svg_flowchart-crossStart"><path style="stroke-width: 2; stroke-dasharray: 1, 0;" class="arrowMarkerPath" d="M 1,1 l 9,9 M 10,1 l -9,9"/></marker><g class="root"><g class="clusters"><g id="App" class="cluster default flowchart-label"><rect height="410" width="976.37890625" y="0" x="83.34375" ry="0" rx="0" style=""/><g transform="translate(539.595703125, 0)" class="cluster-label"><foreignObject height="15" width="63.875"><div style="display: inline-block; white-space: nowrap;" xmlns="http://www.w3.org/1999/xhtml"><span class="nodeLabel">ES Modules</span></div></foreignObject></g></g></g><g class="edgePaths"><path marker-end="url(#my-svg_flowchart-pointEnd)" style="fill:none;" class="edge-thickness-normal edge-pattern-solid flowchart-link LS-User LE-HTML" id="L-User-HTML-0" d="M48.344,269.848L125.803,277.374C203.263,284.899,358.182,299.949,506.981,314.647C655.78,329.344,798.458,343.689,869.798,350.861L941.137,358.033"/><path marker-end="url(#my-svg_flowchart-pointEnd)" style="fill:none;" class="edge-thickness-normal edge-pattern-solid flowchart-link LS-HTML LE-app" id="L-HTML-app-0" d="M998.393,340L1000.768,335.833C1003.143,331.667,1007.894,323.333,1010.269,311.25C1012.645,299.167,1012.645,283.333,1012.645,265C1012.645,246.667,1012.645,225.833,1012.645,205C1012.645,184.167,1012.645,163.333,1012.645,145C1012.645,126.667,1012.645,110.833,969.879,96.184C927.114,81.535,841.583,68.07,798.817,61.338L756.052,54.605"/><path marker-end="url(#my-svg_flowchart-pointEnd)" style="fill:none;" class="edge-thickness-normal edge-pattern-solid flowchart-link LS-app LE-state" id="L-app-state-0" d="M671.02,51.242L593.265,58.535C515.51,65.828,360.001,80.414,282.247,90.99C204.492,101.567,204.492,108.133,204.492,111.417L204.492,114.7"/><path marker-end="url(#my-svg_flowchart-pointEnd)" style="fill:none;" class="edge-thickness-normal edge-pattern-solid flowchart-link LS-app LE-render" id="L-app-render-0" d="M671.02,55.491L638.143,62.076C605.267,68.661,539.514,81.83,506.638,91.699C473.762,101.567,473.762,108.133,473.762,111.417L473.762,114.7"/><path marker-end="url(#my-svg_flowchart-pointEnd)" style="fill:none;" class="edge-thickness-normal edge-pattern-solid flowchart-link LS-app LE-events" id="L-app-events-0" d="M710.918,70L710.918,74.167C710.918,78.333,710.918,86.667,710.918,94.117C710.918,101.567,710.918,108.133,710.918,111.417L710.918,114.7"/><path marker-end="url(#my-svg_flowchart-pointEnd)" style="fill:none;" class="edge-thickness-normal edge-pattern-solid flowchart-link LS-render LE-layouts" id="L-render-layouts-0" d="M432.944,165L420.85,171.667C408.756,178.333,384.567,191.667,372.473,204.117C360.379,216.567,360.379,228.133,360.379,233.917L360.379,239.7"/><path marker-end="url(#my-svg_flowchart-pointEnd)" style="fill:none;" class="edge-thickness-normal edge-pattern-solid flowchart-link LS-render LE-data" id="L-render-data-0" d="M549.158,165L571.497,171.667C593.837,178.333,638.516,191.667,660.856,204.117C683.195,216.567,683.195,228.133,683.195,233.917L683.195,239.7"/><path marker-end="url(#my-svg_flowchart-pointEnd)" style="fill:none;" class="edge-thickness-normal edge-pattern-solid flowchart-link LS-app LE-utils" id="L-app-utils-0" d="M750.816,56.827L778.033,63.189C805.249,69.551,859.681,82.276,886.897,91.921C914.113,101.567,914.113,108.133,914.113,111.417L914.113,114.7"/><path marker-end="url(#my-svg_flowchart-pointEnd)" marker-start="url(#my-svg_flowchart-pointStart)" style="fill:none;" class="edge-thickness-normal edge-pattern-solid flowchart-link LS-state LE-User" id="L-state-User-0" d="M204.492,170.3L204.492,176.083C204.492,181.867,204.492,193.433,179.302,207.948C154.112,222.462,103.732,239.924,78.542,248.655L53.351,257.386"/></g><g class="edgeLabels"><g class="edgeLabel"><g transform="translate(0, 0)" class="label"><foreignObject height="0" width="0"><div style="display: inline-block; white-space: nowrap;" xmlns="http://www.w3.org/1999/xhtml"><span class="edgeLabel"></span></div></foreignObject></g></g><g class="edgeLabel"><g transform="translate(0, 0)" class="label"><foreignObject height="0" width="0"><div style="display: inline-block; white-space: nowrap;" xmlns="http://www.w3.org/1999/xhtml"><span class="edgeLabel"></span></div></foreignObject></g></g><g class="edgeLabel"><g transform="translate(0, 0)" class="label"><foreignObject height="0" width="0"><div style="display: inline-block; white-space: nowrap;" xmlns="http://www.w3.org/1999/xhtml"><span class="edgeLabel"></span></div></foreignObject></g></g><g class="edgeLabel"><g transform="translate(0, 0)" class="label"><foreignObject height="0" width="0"><div style="display: inline-block; white-space: nowrap;" xmlns="http://www.w3.org/1999/xhtml"><span class="edgeLabel"></span></div></foreignObject></g></g><g class="edgeLabel"><g transform="translate(0, 0)" class="label"><foreignObject height="0" width="0"><div style="display: inline-block; white-space: nowrap;" xmlns="http://www.w3.org/1999/xhtml"><span class="edgeLabel"></span></div></foreignObject></g></g><g class="edgeLabel"><g transform="translate(0, 0)" class="label"><foreignObject height="0" width="0"><div style="display: inline-block; white-space: nowrap;" xmlns="http://www.w3.org/1999/xhtml"><span class="edgeLabel"></span></div></foreignObject></g></g><g class="edgeLabel"><g transform="translate(0, 0)" class="label"><foreignObject height="0" width="0"><div style="display: inline-block; white-space: nowrap;" xmlns="http://www.w3.org/1999/xhtml"><span class="edgeLabel"></span></div></foreignObject></g></g><g class="edgeLabel"><g transform="translate(0, 0)" class="label"><foreignObject height="0" width="0"><div style="display: inline-block; white-space: nowrap;" xmlns="http://www.w3.org/1999/xhtml"><span class="edgeLabel"></span></div></foreignObject></g></g><g transform="translate(204.4921875, 205)" class="edgeLabel"><g transform="translate(-58.1328125, -15)" class="label"><foreignObject height="30" width="116.265625"><div style="display: inline-block; white-space: nowrap;" xmlns="http://www.w3.org/1999/xhtml"><span class="edgeLabel">No persistence<br />(ephemeral session)</span></div></foreignObject></g></g></g><g class="nodes"><g transform="translate(710.91796875, 47.5)" data-id="app" data-node="true" id="flowchart-app-3" class="node default default flowchart-label"><rect height="45" width="79.796875" y="-22.5" x="-39.8984375" ry="0" rx="0" style="" class="basic label-container"/><g transform="translate(-32.3984375, -15)" style="" class="label"><rect/><foreignObject height="30" width="64.796875"><div style="display: inline-block; white-space: nowrap;" xmlns="http://www.w3.org/1999/xhtml"><span class="nodeLabel">app.js<br />Entry point</span></div></foreignObject></g></g><g transform="translate(985.56640625, 362.5)" data-id="HTML" data-node="true" id="flowchart-HTML-1" class="node default default flowchart-label"><rect height="45" width="78.3125" y="-22.5" x="-39.15625" ry="0" rx="0" style="" class="basic label-container"/><g transform="translate(-31.65625, -15)" style="" class="label"><rect/><foreignObject height="30" width="63.3125"><div style="display: inline-block; white-space: nowrap;" xmlns="http://www.w3.org/1999/xhtml"><span class="nodeLabel">index.html<br />App shell</span></div></foreignObject></g></g><g transform="translate(204.4921875, 142.5)" data-id="state" data-node="true" id="flowchart-state-5" class="node default default flowchart-label"><rect height="45" width="172.296875" y="-22.5" x="-86.1484375" ry="0" rx="0" style="" class="basic label-container"/><g transform="translate(-78.6484375, -15)" style="" class="label"><rect/><foreignObject height="30" width="157.296875"><div style="display: inline-block; white-space: nowrap;" xmlns="http://www.w3.org/1999/xhtml"><span class="nodeLabel">state.js<br />Active layout + hover state</span></div></foreignObject></g></g><g transform="translate(473.76171875, 142.5)" data-id="render" data-node="true" id="flowchart-render-7" class="node default default flowchart-label"><rect height="45" width="194.984375" y="-22.5" x="-97.4921875" ry="0" rx="0" style="" class="basic label-container"/><g transform="translate(-89.9921875, -15)" style="" class="label"><rect/><foreignObject height="30" width="179.984375"><div style="display: inline-block; white-space: nowrap;" xmlns="http://www.w3.org/1999/xhtml"><span class="nodeLabel">render.js<br />Tabs, mockup, browser, tooltip</span></div></foreignObject></g></g><g transform="translate(710.91796875, 142.5)" data-id="events" data-node="true" id="flowchart-events-9" class="node default default flowchart-label"><rect height="45" width="179.328125" y="-22.5" x="-89.6640625" ry="0" rx="0" style="" class="basic label-container"/><g transform="translate(-82.1640625, -15)" style="" class="label"><rect/><foreignObject height="30" width="164.328125"><div style="display: inline-block; white-space: nowrap;" xmlns="http://www.w3.org/1999/xhtml"><span class="nodeLabel">events.js<br />Hover, click, search, toggles</span></div></foreignObject></g></g><g transform="translate(360.37890625, 267.5)" data-id="layouts" data-node="true" id="flowchart-layouts-11" class="node default default flowchart-label"><rect height="45" width="183.5" y="-22.5" x="-91.75" ry="0" rx="0" style="" class="basic label-container"/><g transform="translate(-84.25, -15)" style="" class="label"><rect/><foreignObject height="30" width="168.5"><div style="display: inline-block; white-space: nowrap;" xmlns="http://www.w3.org/1999/xhtml"><span class="nodeLabel">layouts.js<br />5 wireframe HTML templates</span></div></foreignObject></g></g><g transform="translate(683.1953125, 267.5)" data-id="data" data-node="true" id="flowchart-data-13" class="node default default flowchart-label"><rect height="45" width="170.03125" y="-22.5" x="-85.015625" ry="0" rx="0" style="" class="basic label-container"/><g transform="translate(-77.515625, -15)" style="" class="label"><rect/><foreignObject height="30" width="155.03125"><div style="display: inline-block; white-space: nowrap;" xmlns="http://www.w3.org/1999/xhtml"><span class="nodeLabel">data.js<br />40+ component definitions</span></div></foreignObject></g></g><g transform="translate(914.11328125, 142.5)" data-id="utils" data-node="true" id="flowchart-utils-15" class="node default default flowchart-label"><rect height="45" width="127.0625" y="-22.5" x="-63.53125" ry="0" rx="0" style="" class="basic label-container"/><g transform="translate(-56.03125, -15)" style="" class="label"><rect/><foreignObject height="30" width="112.0625"><div style="display: inline-block; white-space: nowrap;" xmlns="http://www.w3.org/1999/xhtml"><span class="nodeLabel">utils.js<br />debounce, escHtml</span></div></foreignObject></g></g><g transform="translate(24.171875, 267.5)" data-id="User" data-node="true" id="flowchart-User-0" class="node default default flowchart-label"><rect height="30" width="48.34375" y="-15" x="-24.171875" ry="15" rx="15" style=""/><g transform="translate(-12.921875, -7.5)" style="" class="label"><rect/><foreignObject height="15" width="25.84375"><div style="display: inline-block; white-space: nowrap;" xmlns="http://www.w3.org/1999/xhtml"><span class="nodeLabel">User</span></div></foreignObject></g></g></g></g></g></svg>